HIERARCHY
ROOT Hips
{
	OFFSET 0 0 0
	CHANNELS 6 Xposition Yposition Zposition Zrotation Yrotation Xrotation
	JOINT LeftThigh
	{
		OFFSET 8.209213 0 -5.776854
		CHANNELS 3 Zrotation Yrotation Xrotation
		JOINT LeftLeg
		{
			OFFSET 0 0 -41.350112
			CHANNELS 3 Zrotation Yrotation Xrotation
			JOINT LeftFoot
			{
				OFFSET 0 0 -38.420225
				CHANNELS 3 Zrotation Yrotation Xrotation
				End Site
				{
					OFFSET 0 -13.011281 -4.889596
				}
			}
		}
	}
	JOINT RightThigh
	{
		OFFSET -8.209213 0 -5.776854
		CHANNELS 3 Zrotation Yrotation Xrotation
		JOINT RightLeg
		{
			OFFSET 0 0 -41.350112
			CHANNELS 3 Zrotation Yrotation Xrotation
			JOINT RightFoot
			{
				OFFSET 0 0 -38.420225
				CHANNELS 3 Zrotation Yrotation Xrotation
				End Site
				{
					OFFSET 0 -13.011281 -4.889596
				}
			}
		}
	}
	JOINT SpineLow
	{
		OFFSET 0 0 4.606742
		CHANNELS 3 Zrotation Yrotation Xrotation
		JOINT SpineMid
		{
			OFFSET 0 0 12.592067
			CHANNELS 3 Zrotation Yrotation Xrotation
			JOINT Chest
			{
				OFFSET 0 0 12.592067
				CHANNELS 3 Zrotation Yrotation Xrotation
				JOINT LeftShoulder
				{
					OFFSET 7.370787 1.382022 9.213483
					CHANNELS 3 Zrotation Yrotation Xrotation
					JOINT LeftArm
					{
						OFFSET 8.937079 0 4.146067
						CHANNELS 3 Zrotation Yrotation Xrotation
						JOINT LeftForearm
						{
							OFFSET 0 0 25.158337
							CHANNELS 3 Zrotation Yrotation Xrotation
							JOINT LeftHand
							{
								OFFSET 0 0 24.597236
								CHANNELS 3 Zrotation Yrotation Xrotation
							}
						}
					}
				}
				JOINT RightShoulder
				{
					OFFSET -7.370787 1.382022 9.213483
					CHANNELS 3 Zrotation Yrotation Xrotation
					JOINT RightArm
					{
						OFFSET -8.937079 0 4.146067
						CHANNELS 3 Zrotation Yrotation Xrotation
						JOINT RightForearm
						{
							OFFSET 0 0 -25.158337
							CHANNELS 3 Zrotation Yrotation Xrotation
							JOINT RightHand
							{
								OFFSET 0 0 -24.597236
								CHANNELS 3 Zrotation Yrotation Xrotation
							}
						}
					}
				}
				JOINT Neck
				{
					OFFSET 0 0 14.741573
					CHANNELS 3 Zrotation Yrotation Xrotation
					JOINT Head
					{
						OFFSET 0 0 11.05618
						CHANNELS 3 Zrotation Yrotation Xrotation
						End Site
						{
							OFFSET 0 0 7.325843
						}
					}
				}
			}
		}
	}
}
MOTION
Frames: 12
Frame Time: 0.01
30.5862704703858 72.7253386118449 -9.96018269693448 -9.062731 55.076432 -82.566859 51.513494 -22.108764 -62.866565 -6.164552 13.685887 43.458302 3.542247 1.453769 3.992696 -25.246531 33.381367 -58.570685 -25.82559 -25.442843 69.262242 19.042204 4.473912 3.576955 4.760729 -0.046176 -1.731436 13.008642 0.214192 -4.720731 13.008642 0.214192 -4.720731 0.789834 4.35163 6.021986 71.82367 26.250699 154.437724 -3.549443 47.557805 122.056591 49.023375 -11.926295 -3.748425 14.174463 -15.512619 10.465307 40.94204 65.094717 -6.93444 -10.052643 40.642148 -77.939503 109.075989 -54.863753 4.737479 14.973723 1.082443 0.082308 11.229812 0.814429 0.035222
29.9377633336194 72.9796382708207 -9.59452242693636 -9.037568 55.675138 -82.747174 51.232109 -22.179794 -62.176267 -6.256951 13.344702 41.520242 3.143142 1.109008 4.185177 -23.434717 33.030816 -57.562784 -25.131617 -24.723513 68.718283 19.320437 4.591875 3.667145 4.949047 0.040908 -1.741669 13.516895 0.46644 -4.729513 13.516895 0.46644 -4.729513 -0.173407 4.146568 6.798088 70.392798 28.314981 155.848411 -5.72278 46.814236 119.579433 49.592714 -10.929565 -5.16721 14.876961 -16.029592 9.762475 45.119143 66.00193 -4.875872 -8.419817 42.070387 -76.981153 111.11906 -54.771878 3.624034 14.117229 0.921244 0.252896 10.587315 0.697218 0.168486
29.4206172766443 73.2086413542651 -9.28036626062113 -8.938481 56.487885 -82.86558 50.733812 -22.479751 -61.430365 -6.070916 13.205061 39.471348 2.92048 0.685555 4.386265 -21.92386 32.781153 -56.478999 -24.164893 -24.69227 67.956478 19.324056 4.67362 3.744571 5.134866 0.1426 -1.775935 14.017006 0.763259 -4.799227 14.017007 0.763259 -4.799227 -1.222008 3.937568 7.863089 68.349804 30.425037 156.752439 -8.307217 45.920939 116.88865 49.928696 -9.634031 -6.896883 15.958656 -16.868016 9.182608 48.585941 66.91475 -2.789504 -6.802834 43.263581 -76.04522 112.973418 -54.480106 2.562307 13.135658 0.628791 0.497633 9.851141 0.482557 0.3599
28.2883873584347 73.4238415398758 -8.69917950152823 -8.807296 57.304396 -82.926763 50.215727 -22.928873 -60.664276 -5.888875 13.451778 37.278068 2.934858 0.165256 4.525004 -19.285427 32.356545 -55.362018 -23.517549 -23.819898 67.31907 19.523678 4.767882 3.750788 5.264218 0.272684 -1.78497 14.361306 1.127955 -4.793757 14.361307 1.127955 -4.793757 -1.772611 3.648997 8.586832 65.729609 32.291772 157.182217 -11.005753 44.935963 114.20792 52.169106 -12.697134 -14.793593 17.633646 -17.689443 8.342233 51.686816 67.614896 -0.781257 -5.158436 44.293097 -75.135743 114.674517 -54.121315 1.586994 12.408493 0.389824 0.603845 9.30596 0.30478 0.445183
27.7837440197525 73.6051371111845 -8.36239469083614 -8.650694 58.288747 -82.819102 49.587144 -23.387139 -59.957491 -5.876103 13.967716 34.918217 3.145172 -0.369442 4.627886 -17.824746 32.094913 -54.403729 -22.418848 -24.016883 66.440945 19.435209 4.893936 3.797162 5.431506 0.400806 -1.801148 14.809404 1.491507 -4.80578 14.809403 1.491507 -4.80578 -2.480766 3.473111 9.007535 62.609524 33.741146 157.307457 -13.560677 43.881789 111.767887 52.20334 -10.562526 -17.546123 18.645299 -18.11706 7.439212 55.00259 67.919474 1.305886 -3.450118 45.200575 -74.202163 116.17746 -53.814684 0.776878 11.360774 0.197609 0.711021 8.520356 0.161493 0.529808
27.0576449979191 73.8729343680225 -7.94687213152273 -8.351403 59.29618 -82.746145 48.94884 -23.967322 -59.059543 -6.597333 15.644932 31.893758 3.370374 -0.657205 4.811409 -15.902948 31.926379 -53.251346 -21.416253 -24.074116 65.535542 18.720918 4.968118 3.884737 5.549695 0.54299 -1.786734 15.123575 1.882753 -4.731328 15.123575 1.882753 -4.731328 -2.928779 3.249386 9.17384 59.373364 34.754069 157.17245 -15.813311 42.766558 109.727033 52.027453 -7.945679 -20.873568 20.273777 -18.534327 6.442571 57.709273 68.058338 3.187156 -1.644613 46.07019 -73.243803 117.481461 -53.714452 0.136983 10.457024 -0.0366 0.772769 7.842828 -0.014231 0.580405
26.4915556788468 73.3834942013571 -7.6013308057408 -8.008577 60.530354 -82.581577 48.144916 -24.548966 -58.270896 -6.377258 15.993212 29.962119 3.608199 -1.030998 4.716845 -14.500866 31.877458 -52.135049 -20.507326 -24.350049 64.633308 18.365072 4.997881 3.966959 5.64979 0.686937 -1.770313 15.388832 2.276752 -4.650416 15.388832 2.276752 -4.650416 -3.44625 3.016007 9.166517 56.154886 35.402289 156.874142 -17.498747 41.641535 108.36938 51.704314 -4.806858 -24.663438 21.698144 -18.74524 5.284275 60.537612 67.784915 5.304867 0.195566 47.008657 -72.38138 118.584458 -53.83154 -0.335709 9.473527 -0.29332 0.840257 7.105549 -0.207023 0.634919
25.7519880811999 74.0253033746892 -7.15096712077315 -7.512686 61.891888 -82.328471 47.156835 -24.979723 -57.427129 -6.02476 16.197383 28.541497 4.004854 -1.362505 4.606325 -12.871232 31.924468 -50.933739 -19.874097 -24.450398 63.809679 17.96148 5.036577 4.017247 5.63208 0.859395 -1.774041 15.330139 2.744659 -4.621918 15.33014 2.744659 -4.621919 -3.479192 2.408084 9.078657 53.187753 35.742459 156.429286 -18.540969 40.610197 107.887374 51.318376 -1.347441 -28.614031 23.597764 -19.150738 4.261857 63.458764 67.315457 7.678715 1.899485 48.069443 -71.757585 119.458657 -54.043626 -0.617822 8.823307 -0.759668 0.960118 6.618596 -0.556028 0.731228
25.1979333478798 74.5613267051201 -6.7866891420615 -7.029213 63.288012 -82.027734 46.068983 -25.385663 -56.706678 -4.924346 15.970563 27.961161 4.588234 -1.446747 4.688957 -11.623064 32.070102 -49.808072 -19.442979 -24.545271 63.073052 17.674155 5.107757 4.114198 5.715919 1.013632 -1.761535 15.55132 3.166098 -4.548486 15.551321 3.166098 -4.548486 -4.46117 2.016882 8.672374 51.084052 35.802419 155.910923 -18.576123 39.485311 108.397546 52.525338 2.695918 -34.207663 24.622128 -19.290541 3.400665 61.50047 68.203236 5.006453 6.004844 47.902736 -70.694579 120.249293 -54.101058 -0.901633 7.761275 -1.149882 1.074894 5.822805 -0.848925 0.820906
24.4767955080733 75.1248250674608 -6.21119077548587 -6.483148 64.720266 -81.72389 44.881307 -26.02253 -56.103667 -2.914357 15.702089 28.513025 5.337567 -1.276355 4.84125 -9.889975 32.235206 -48.55672 -19.552331 -24.064174 62.63351 17.621035 5.182153 4.104754 5.735448 1.12424 -1.72067 15.601094 3.458084 -4.410808 15.601094 3.458084 -4.410808 -5.106124 1.807197 7.823293 49.988405 35.62306 155.643992 -18.471769 38.050747 109.330387 54.255579 5.124758 -38.606368 25.596671 -19.036726 2.416243 49.923241 71.616948 -5.629914 11.053242 44.816906 -72.781065 120.769213 -53.753867 -1.323986 6.957413 -1.381057 1.145133 5.220416 -1.022918 0.874668
24.0581836302385 75.5410440654774 -5.83196222284293 -5.88027 66.191086 -81.273279 43.709826 -26.704257 -55.79598 -0.186728 15.508951 30.36632 5.384222 -1.19132 4.731772 -8.924624 32.449221 -47.513344 -19.585536 -23.791846 62.233233 17.608211 5.244212 4.10425 5.613606 1.181745 -1.699287 15.266223 3.601598 -4.346529 15.266224 3.601598 -4.346529 -4.979898 1.922726 7.004866 49.771797 35.475001 155.148 -18.528905 35.902785 110.768256 57.554214 7.433766 -42.236424 26.717439 -18.554917 1.604967 47.759329 71.978847 -6.459769 11.913526 44.77128 -76.351747 120.727879 -52.733561 -1.638086 6.575531 -1.454664 1.304984 4.934516 -1.077111 0.994477
23.4353147116574 76.0240172525312 -5.21369159897147 -5.088226 67.627102 -80.705701 42.611582 -27.277216 -55.684443 2.62038 14.85701 33.408282 4.241788 -0.815687 4.432207 -7.3954 32.649449 -46.354007 -20.044758 -23.040435 62.032418 18.108039 5.376612 3.997028 5.729751 1.067974 -1.674785 15.590834 3.29423 -4.299401 15.590834 3.29423 -4.299402 -6.071192 3.215651 6.563131 50.217511 35.481717 154.502593 -18.583099 32.877877 112.577911 60.652437 10.303486 -44.320897 25.706948 -17.376441 1.795959 57.699293 70.84942 2.716831 10.724238 46.257902 -77.728693 120.213832 -51.089128 -1.990039 5.57322 -0.838772 1.755523 4.182291 -0.613136 1.324399
